# xmcd
#
# Track frame offsets:
#	150
#	22066
#	40186
#	59554
#	80603
#	100384
#	122897
#	140639
#	166422
#	182351
#	199137
#	216384
#	242636
#
# Disc length: 3516 seconds
#
# Revision: 1
# Processed by: cddbd v1.5.1PL2 Copyright (c) Steve Scherf et al.
# Submitted via: audiograbber 1.83.01
#
DISCID=c10dba0d
DTITLE=The Jay Ottaway Band - New Old World
DYEAR=2006
DGENRE=Blues
TTITLE0=New Old World
TTITLE1=When You´re Ready
TTITLE2=Dead To You
TTITLE3=There I Go Again
TTITLE4=Miss Sunday
TTITLE5=Get Over You
TTITLE6=Toni´s Toenails
TTITLE7=Shout It In Your Stare
TTITLE8=Jazz
TTITLE9=Heaven Sung
TTITLE10=Mowtown Mary
TTITLE11=Drunken Hearted Woman
TTITLE12=Big Bad Bassman
EXTD=
EXTT0=
EXTT1=
EXTT2=
EXTT3=
EXTT4=
EXTT5=
EXTT6=
EXTT7=
EXTT8=
EXTT9=
EXTT10=
EXTT11=
EXTT12=
PLAYORDER=
